<svg xmlns="http://www.w3.org/2000/svg" width="38" height="38" viewBox="0 0 38 38">
  <g id="Group_2" data-name="Group 2" transform="translate(-107 -586)">
    <path id="Path_23079" data-name="Path 23079" d="M19,0A19,19,0,1,1,0,19,19,19,0,0,1,19,0Z" transform="translate(107 586)" fill="#a09569"/>
    <path id="Path_37" data-name="Path 37" d="M5.875-16.406A7.366,7.366,0,0,1,2.625-10.5Q-.719-7.906-.719-5.844a1.039,1.039,0,0,1-.953.516,1.039,1.039,0,0,1-.953-.516,6.4,6.4,0,0,1-.094-1.141,5.583,5.583,0,0,1,1.875-4.5,5.56,5.56,0,0,0,2.125-4.406,3.574,3.574,0,0,0-.5-1.937,1.875,1.875,0,0,0-1.656-.906q-2.188,0-2.187,2.906a3.86,3.86,0,0,0,.453,1.984,2.616,2.616,0,0,1-1.562.547,2.755,2.755,0,0,1-1.7-.625,2.3,2.3,0,0,1-.875-1.031,4.33,4.33,0,0,1-.234-1.406,4.778,4.778,0,0,1,1.781-3.7,6.91,6.91,0,0,1,4.75-1.656A6.908,6.908,0,0,1,4.016-20.25,4.777,4.777,0,0,1,5.875-16.406ZM.672-1.719A2.2,2.2,0,0,1-.008-.094,2.258,2.258,0,0,1-1.656.578,2.221,2.221,0,0,1-3.273-.094a2.2,2.2,0,0,1-.68-1.625,2.245,2.245,0,0,1,.68-1.648,2.209,2.209,0,0,1,1.617-.68,2.245,2.245,0,0,1,1.648.68A2.245,2.245,0,0,1,.672-1.719Z" transform="translate(126.984 615.719)" fill="#fff"/>
  </g>
</svg>
