<svg xmlns="http://www.w3.org/2000/svg" width="89.002" height="89" viewBox="0 0 89.002 89">
  <g id="Group_8363" data-name="Group 8363" transform="translate(-524 -1249)">
    <circle id="Ellipse_3" data-name="Ellipse 3" cx="38" cy="38" r="38" transform="translate(531 1256)" fill="#a09569"/>
    <g id="Group_8347" data-name="Group 8347" transform="translate(82 144)">
      <path id="Forma_1" data-name="Forma 1" d="M985.673,4827.937h-.022a44.47,44.47,0,0,0-36.018,70.579l-5.546,16.535,17.105-5.466a44.493,44.493,0,1,0,24.481-81.648Zm25.894,62.84c-1.074,3.032-5.334,5.544-8.733,6.28-2.325.5-5.363.89-15.586-3.347-13.078-5.419-21.5-18.708-22.157-19.571-.628-.861-5.284-7.035-5.284-13.426a14.2,14.2,0,0,1,4.55-10.827,6.465,6.465,0,0,1,4.551-1.6c.551,0,1.046.03,1.491.051,1.307.055,1.964.133,2.826,2.2,1.073,2.587,3.688,8.973,4,9.629a2.653,2.653,0,0,1,.189,2.41,7.7,7.7,0,0,1-1.44,2.043c-.658.756-1.28,1.334-1.936,2.147-.6.7-1.279,1.459-.522,2.766a39.363,39.363,0,0,0,7.219,8.975,32.622,32.622,0,0,0,10.436,6.435,2.8,2.8,0,0,0,3.136-.5,53.005,53.005,0,0,0,3.477-4.6,2.48,2.48,0,0,1,3.193-.965c1.2.416,7.56,3.558,8.866,4.209s2.17.965,2.487,1.519S1012.641,4887.74,1011.567,4890.776Z" transform="translate(-499.161 -3722.937)" fill="#ededed"/>
    </g>
  </g>
</svg>
