<svg xmlns="http://www.w3.org/2000/svg" width="226.263" height="103.029" viewBox="0 0 226.263 103.029">
  <g id="Group_3" data-name="Group 3" transform="translate(-273 -46)">
    <g id="Group_1" data-name="Group 1" transform="translate(273 71.737)">
      <path id="Path_1" data-name="Path 1" d="M60.414,73.978A1.41,1.41,0,0,1,59,75.389H57.33a1.424,1.424,0,0,1-1.415-1.41V61.436H47.795a1.424,1.424,0,0,1-1.415-1.415V58.262a1.428,1.428,0,0,1,1.415-1.442h9.858a2.766,2.766,0,0,1,2.761,2.77V73.978Zm-10.95,1.41H47.822a1.428,1.428,0,0,1-1.442-1.41v-7.8a1.433,1.433,0,0,1,1.442-1.415h1.641a1.451,1.451,0,0,1,1.442,1.415v7.8a1.428,1.428,0,0,1-1.442,1.41" transform="translate(-25.35 -56.793)"/>
      <path id="Path_2" data-name="Path 2" d="M91.979,75.36H90.343A1.433,1.433,0,0,1,88.9,73.945V61.4H82.294a1.424,1.424,0,0,1-1.415-1.415V58.229a1.433,1.433,0,0,1,1.4-1.469h8.4a2.77,2.77,0,0,1,2.761,2.78V73.945A1.41,1.41,0,0,1,92.03,75.36h-.041" transform="translate(-44.206 -56.76)"/>
      <path id="Path_3" data-name="Path 3" d="M124.291,75.387H112.765a1.424,1.424,0,0,1-1.415-1.415V72.2a1.433,1.433,0,0,1,1.415-1.442h6.588V61.43H112.86a1.455,1.455,0,0,1-1.415-1.446V58.256a1.437,1.437,0,0,1,1.415-1.446h8.221a2.8,2.8,0,0,1,2.807,2.775V70.762h.707A1.1,1.1,0,0,1,125.7,71.85c0,.012,0,.024,0,.037v2.086a1.428,1.428,0,0,1-1.415,1.415" transform="translate(-60.86 -56.787)"/>
      <path id="Path_4" data-name="Path 4" d="M158.958,61.436h-.707V73.978a1.442,1.442,0,0,1-1.468,1.415h-1.633a1.455,1.455,0,0,1-1.442-1.415V61.436h-4.176V73.978a1.442,1.442,0,0,1-1.456,1.415h-1.637a1.437,1.437,0,0,1-1.446-1.415V61.436h-.707a1.111,1.111,0,0,1-1.125-1.093V58.262a1.433,1.433,0,0,1,1.415-1.442h14.111a1.428,1.428,0,0,1,1.41,1.442v2.122a1.111,1.111,0,0,1-1.138,1.052" transform="translate(-78.247 -56.793)"/>
      <path id="Path_5" data-name="Path 5" d="M197.434,73.978a1.41,1.41,0,0,1-1.41,1.411h-1.669a1.424,1.424,0,0,1-1.415-1.41V61.436h-8.126a1.428,1.428,0,0,1-1.415-1.415V58.262a1.433,1.433,0,0,1,1.415-1.442h9.858a2.761,2.761,0,0,1,2.761,2.761v14.4Zm-10.95,1.41h-1.637a1.433,1.433,0,0,1-1.446-1.41v-7.8a1.437,1.437,0,0,1,1.446-1.415h1.637a1.455,1.455,0,0,1,1.446,1.415v7.8a1.433,1.433,0,0,1-1.446,1.41" transform="translate(-100.24 -56.793)"/>
      <path id="Path_6" data-name="Path 6" d="M20.574,127.452a1.415,1.415,0,0,1-1.414,1.415H17.49a1.428,1.428,0,0,1-1.442-1.415V114.9H11.709v11.173a2.77,2.77,0,0,1-2.775,2.766H5.991a1.238,1.238,0,0,1-1.251-1.224v-2.294a1.115,1.115,0,0,1,1.106-1.125H7.225v-9.3h-1.2A1.111,1.111,0,0,1,4.9,113.8h0v-2.118a1.442,1.442,0,0,1,1.437-1.446H17.812a2.766,2.766,0,0,1,2.761,2.77v14.442Z" transform="translate(-2.591 -85.99)"/>
      <path id="Path_7" data-name="Path 7" d="M48.763,119.939H47.108a1.455,1.455,0,0,1-1.442-1.415V114.9H44.174A1.111,1.111,0,0,1,43.05,113.8v-2.118a1.433,1.433,0,0,1,1.41-1.446H47.8A2.385,2.385,0,0,1,50.21,112.6v5.94a1.415,1.415,0,0,1-1.414,1.415h-.032" transform="translate(-23.53 -85.99)"/>
      <path id="Path_8" data-name="Path 8" d="M71.306,112.863c0,1.215-.544,1.36-1.51,1.814a2.941,2.941,0,0,0-1.669,3.85,30.333,30.333,0,0,1,1.319,3.664c.385,1.732.608,6.616-2.267,6.616h-.93a1.531,1.531,0,0,1-1.573-1.959c.739-2.666.322-4.045-.676-6.348a5.486,5.486,0,0,1,.131-5.618h-.984a1.65,1.65,0,0,1-1.669-1.632v-1.387a1.633,1.633,0,0,1,1.623-1.642h6.534a1.673,1.673,0,0,1,1.669,1.641Z" transform="translate(-33.603 -85.979)"/>
      <path id="Path_9" data-name="Path 9" d="M92.643,128.819h-6.1a1.424,1.424,0,0,1-1.41-1.415v-1.768a1.428,1.428,0,0,1,1.41-1.442h6.135a.78.78,0,0,0,.771-.771V114.88H86.54a1.424,1.424,0,0,1-1.41-1.415v-1.814a1.428,1.428,0,0,1,1.41-1.442h8.615a2.761,2.761,0,0,1,2.757,2.766v10.56a5.251,5.251,0,0,1-5.233,5.269h-.032" transform="translate(-46.529 -85.974)"/>
      <path id="Path_10" data-name="Path 10" d="M126.3,128.819h-1.641a1.433,1.433,0,0,1-1.442-1.415V114.88H116.6a1.428,1.428,0,0,1-1.415-1.415v-1.814a1.433,1.433,0,0,1,1.415-1.442h8.379a2.77,2.77,0,0,1,2.766,2.775v14.406a1.415,1.415,0,0,1-1.414,1.415H126.3" transform="translate(-62.959 -85.974)"/>
      <path id="Path_11" data-name="Path 11" d="M157.418,129.175h-2.439a1.215,1.215,0,0,1-1.22-1.211v-2.276a1.12,1.12,0,0,1,1.115-1.124h1.483a.208.208,0,0,0,.195-.19v-8a1.679,1.679,0,0,0-1.737-1.573c-1.442-.1-2.984.544-2.984,2.344V127.57a1.592,1.592,0,0,1-1.578,1.605H149a1.655,1.655,0,0,1-1.7-1.605V115.214h-.608a1.111,1.111,0,0,1-1.125-1.093v-2.313a1.22,1.22,0,0,1,1.22-1.22h2.086a3.4,3.4,0,0,1,2.022.676,8.162,8.162,0,0,1,4.625-1c2.893.322,5.781,2.376,5.781,5.5v9.567a3.872,3.872,0,0,1-3.886,3.854" transform="translate(-79.564 -85.99)"/>
      <path id="Path_12" data-name="Path 12" d="M197.434,127.4a1.415,1.415,0,0,1-1.414,1.415h-1.665a1.428,1.428,0,0,1-1.415-1.415V114.88h-8.126a1.424,1.424,0,0,1-1.415-1.415v-1.814a1.428,1.428,0,0,1,1.415-1.442h9.858a2.766,2.766,0,0,1,2.761,2.77V127.4Zm-10.95,1.415h-1.637A1.433,1.433,0,0,1,183.4,127.4v-7.8a1.433,1.433,0,0,1,1.446-1.415h1.637a1.455,1.455,0,0,1,1.446,1.415v7.8a1.433,1.433,0,0,1-1.446,1.415" transform="translate(-100.24 -85.974)"/>
      <path id="Path_13" data-name="Path 13" d="M4.158,171.17a.689.689,0,0,0-.689-.68H.295A.263.263,0,0,1,0,170.26c0-.01,0-.019,0-.029v-1.038a.281.281,0,0,1,.295-.263H3.469A2.267,2.267,0,0,1,5.736,171.2v5.115a.286.286,0,0,1-.268.3H4.426a.286.286,0,0,1-.268-.3Zm-3.627.857.943.059a.29.29,0,0,1,.3.283.284.284,0,0,1-.007.071s-.159,1.415-.159,1.678V176.3a.286.286,0,0,1-.268.3H.313a.286.286,0,0,1-.268-.3v-2.213c0-.3.163-1.814.163-1.814A.272.272,0,0,1,.484,172a.239.239,0,0,1,.051.005" transform="translate(0 -118.068)"/>
      <path id="Path_14" data-name="Path 14" d="M22.545,175.31a.866.866,0,0,1-.78,1.242H17.517a.272.272,0,0,1-.277-.268v-1.02a.281.281,0,0,1,.295-.263h3.174l-3.088-5.677a.29.29,0,0,1,.263-.453h.975a.526.526,0,0,1,.531.308l1.134,2.186,1.034-2.267a.358.358,0,0,1,.367-.249h.988c.277,0,.453.209.308.453L21.348,173Z" transform="translate(-9.423 -118.024)"/>
      <path id="Path_15" data-name="Path 15" d="M35.242,169.718a.291.291,0,0,1-.135-.388l0-.007.381-.875a.3.3,0,0,1,.4-.118l.485.254H39.74a1.192,1.192,0,0,1,1.2,1.188v5.459a.984.984,0,0,1-.96,1.007H35.524a.263.263,0,0,1-.281-.244c0-.008,0-.016,0-.024v-1.007a.281.281,0,0,1,.294-.268h3.832v-4.534H37.41a2.34,2.34,0,0,0-.268,1.36v.254H37.9a.277.277,0,0,1,.294.258v.935a.263.263,0,0,1-.258.268H36.3a.6.6,0,0,1-.676-.52.594.594,0,0,1,0-.161v-.766a3.721,3.721,0,0,1,.308-1.678Z" transform="translate(-19.173 -117.723)"/>
      <path id="Path_16" data-name="Path 16" d="M56.434,171.17a.689.689,0,0,0-.689-.68H52.571a.263.263,0,0,1-.281-.244v-1.052a.281.281,0,0,1,.295-.263h3.174a2.267,2.267,0,0,1,2.267,2.267v5.115a.286.286,0,0,1-.268.3H56.693a.286.286,0,0,1-.268-.3Zm-3.627.857.943.059a.29.29,0,0,1,.3.278.3.3,0,0,1-.007.075s-.159,1.415-.159,1.678V176.3a.286.286,0,0,1-.268.3H52.612a.286.286,0,0,1-.268-.3v-2.213c0-.3.163-1.814.163-1.814a.267.267,0,0,1,.267-.268.283.283,0,0,1,.055.005" transform="translate(-28.58 -118.068)"/>
      <path id="Path_17" data-name="Path 17" d="M84.716,169.867a.313.313,0,0,1-.226-.38l0-.014.222-.857a.317.317,0,0,1,.388-.225l.011,0,2.1.531a.734.734,0,0,1,.621.794V176a.277.277,0,0,1-.263.29H86.529a.281.281,0,0,1-.268-.29V170.28Z" transform="translate(-46.174 -117.768)"/>
      <path id="Path_18" data-name="Path 18" d="M111.346,171.153a.689.689,0,0,0-.676-.68h-.988a3.094,3.094,0,0,0-.907,2.267,4.3,4.3,0,0,0,.943,2.6v.667a.553.553,0,0,1-.549.549H107.3a.272.272,0,0,1-.281-.263v-.911a.281.281,0,0,1,.295-.263h.662a4.052,4.052,0,0,1-.735-2.331,3.629,3.629,0,0,1,.753-2.331h-.6a.268.268,0,0,1-.281-.253v-1.043a.281.281,0,0,1,.295-.263h3.242a2.24,2.24,0,0,1,2.24,2.24v5.142a.286.286,0,0,1-.268.3h-1.029a.286.286,0,0,1-.268-.3Z" transform="translate(-58.494 -118.052)"/>
      <path id="Path_19" data-name="Path 19" d="M124.716,169.867a.313.313,0,0,1-.226-.38l0-.014.222-.857a.317.317,0,0,1,.388-.225l.011,0,2.108.531a.734.734,0,0,1,.617.794V176a.277.277,0,0,1-.263.29h-1.048a.276.276,0,0,1-.263-.29h0V170.28Z" transform="translate(-68.036 -117.768)"/>
      <path id="Path_20" data-name="Path 20" d="M140.381,171.17a.689.689,0,0,0-.694-.68h-3.106a.258.258,0,0,1-.28-.235c0-.008,0-.016,0-.024v-1.038a.281.281,0,0,1,.295-.263h3.079a2.267,2.267,0,0,1,2.267,2.267v5.115a.286.286,0,0,1-.268.3h-1.029a.286.286,0,0,1-.268-.3Z" transform="translate(-74.497 -118.068)"/>
      <path id="Path_21" data-name="Path 21" d="M155.682,173.781l-.589-.562a.313.313,0,0,1-.045-.44.321.321,0,0,1,.045-.045,2.612,2.612,0,0,0,.825-2.24h-2.077a.263.263,0,0,1-.281-.244c0-.008,0-.015,0-.023V169.2a.281.281,0,0,1,.294-.268h2.653a.966.966,0,0,1,.975.939v.843a3.873,3.873,0,0,1-1.315,3.052.362.362,0,0,1-.485,0" transform="translate(-83.931 -118.068)"/>
      <path id="Path_22" data-name="Path 22" d="M167.006,176.609a.254.254,0,0,1-.276-.23.269.269,0,0,1,0-.033v-1.02a.277.277,0,0,1,.289-.263h2.966a.707.707,0,0,0,.707-.707V171.2a.7.7,0,0,0-.707-.676h-2.721a.263.263,0,0,1-.281-.244c0-.008,0-.015,0-.023v-1.029a.286.286,0,0,1,.3-.268H170a2.235,2.235,0,0,1,2.267,2.2q0,.032,0,.064v3.138A2.267,2.267,0,0,1,170,176.632Z" transform="translate(-91.129 -118.084)"/>
      <path id="Path_23" data-name="Path 23" d="M184.582,169.974l-.685-.617a.309.309,0,0,1,0-.426l.594-.667a.294.294,0,0,1,.412-.064.287.287,0,0,1,.042.037l.852.762c.871-.453,3.627-1.36,3.773,1.315l.236,4.806a.907.907,0,0,1-.755,1.037.936.936,0,0,1-.151.011h-1.859a.267.267,0,0,1-.281-.253s0-.01,0-.014v-1.02a.286.286,0,0,1,.295-.268h1.224l-.195-4.081c-.041-.943-1.31-.413-1.959-.145l-.68,5.555a.254.254,0,0,1-.251.257l-.039,0h-.975c-.222,0-.295-.163-.281-.345Z" transform="translate(-100.466 -117.639)"/>
      <path id="Path_24" data-name="Path 24" d="M203.505,173.27a.3.3,0,0,1-.166-.4l.007-.016,2.267-5.527h-3.451a.454.454,0,0,1-.453-.453v-3.437a.286.286,0,0,1,.268-.3h1.034a.286.286,0,0,1,.263.3v2.326h3.306a.852.852,0,0,1,.866.839v.027a.951.951,0,0,1-.086.372l-2.485,6.5a.277.277,0,0,1-.348.179.3.3,0,0,1-.046-.02Z" transform="translate(-110.248 -114.904)"/>
      <path id="Path_25" data-name="Path 25" d="M70.349,173.27a.309.309,0,0,1-.162-.4l0-.008,2.267-5.527H68.993a.454.454,0,0,1-.453-.453v-3.437a.286.286,0,0,1,.263-.3h1.034a.286.286,0,0,1,.268.3v2.326h3.315a.848.848,0,0,1,.866.829q0,.018,0,.037A.951.951,0,0,1,74.2,167l-2.476,6.5a.281.281,0,0,1-.356.177.3.3,0,0,1-.043-.019Z" transform="translate(-37.461 -114.904)"/>
    </g>
    <path id="Path_26" data-name="Path 26" d="M283.7,81.117c-2.2,1.814-4.24,3.464-5.994,4.852A49.087,49.087,0,0,1,269.09,58.2a46.489,46.489,0,0,1,.78-8.574c.331-1.737.716-3.247.812-3.55a36.554,36.554,0,0,1,7.033-.771h1.011a49.428,49.428,0,0,0-1.456,12.057,45.928,45.928,0,0,0,6.443,23.76m30.62,23.978c-2.181,2.167-4.285,4.2-6.1,5.895l-10.66-6.607,5.441-4.8a82.026,82.026,0,0,0,11.336,5.509" transform="translate(125.924 21.24)" fill="#a8cf38"/>
    <path id="Path_27" data-name="Path 27" d="M279.809,111.459a5.117,5.117,0,0,0,.608-.508l5.686-5.029,10.665,6.634c-1.7,1.578-3.138,2.825-4.081,3.537a7.9,7.9,0,0,0-1.954,1.986ZM248.858,60.9a27.365,27.365,0,0,1,1.279-8.593,28.535,28.535,0,0,1,1.152-3.115c1.256-.041,4.013-.988,7.631-1.714A47.217,47.217,0,0,0,257.5,59.387,49.63,49.63,0,0,0,266.238,87.5c-3.174,2.5-5.373,4.122-5.84,4.534C251.188,78.6,248.858,68.12,248.858,60.9" transform="translate(136.983 20.049)" fill="#006330"/>
    <path id="Path_28" data-name="Path 28" d="M314.518,60.151a34.058,34.058,0,0,1,1.115-8.9A25.545,25.545,0,0,1,328.783,62.4a6.862,6.862,0,0,0-.177,1.646c0,3.818,2.435,13.249,22.721,24.862a36.248,36.248,0,0,0,3.3,2.489,81.723,81.723,0,0,1-6.974,8.162c-28.453-10.474-33.146-28.48-33.155-39.4" transform="translate(101.104 17.988)" fill="#a8cf38"/>
    <path id="Path_29" data-name="Path 29" d="M376.369,103.684a7.494,7.494,0,0,1-3.872,1.056,11.1,11.1,0,0,1-5.441-1.619,14.615,14.615,0,0,1-2.136-1.483,14.421,14.421,0,0,0,1.36-.812c7.985-5.137,28.113-27.043,29.976-29.065a46.967,46.967,0,0,0,10.152,1.183c.789,0,1.474-.027,2.036-.068s.966-.091,1.424-.159c-7,8.543-17.194,21.357-33.531,30.965M398.347,4.45a27.249,27.249,0,0,1,20.989,10.506c5.319,6.815,5.65,12.982,5.65,18.591a42.743,42.743,0,0,1-3.006,14.936,6.674,6.674,0,0,0-1.174.73,20.505,20.505,0,0,1-10.016,2.5,25.06,25.06,0,0,1-3.573-.258,42.865,42.865,0,0,0,5.06-19.044,23.968,23.968,0,0,0-5.641-16.006c-6.112-7.123-15.834-8.661-22.055-8.788a39.308,39.308,0,0,1,13.807-3.088" transform="translate(73.547 43.568)" fill="#c7212e"/>
    <path id="Path_30" data-name="Path 30" d="M375.142,48.9c-1,4.494-1.691,7.8-5.31,9.681a2.969,2.969,0,0,0-.825.385,13.646,13.646,0,0,1-2.036.657,29.111,29.111,0,0,1-6.8.78c-6.425,0-15.371-1.991-23.778-10.656L343.325,44c.177.127,8.86,6.557,19.017,6.566a21.117,21.117,0,0,0,10.279-2.58,8.025,8.025,0,0,1,.744-.5A3.174,3.174,0,0,1,374.684,47c.345.041.526.086.567.866a5.116,5.116,0,0,1-.136,1.056M296.49,1.4c11.336,0,19.325,5.092,24.9,9.359a44.292,44.292,0,0,1,6.434,6.67c1.056,1.229,1.877,1.673,2.122,2.031l-9.119,8.23c-1.6-2.575-12.478-19.008-32.493-19.221H287.8a37.639,37.639,0,0,0-11.522,1.587c1.605-3.582,6.022-6.312,9.259-7.155A65.209,65.209,0,0,1,296.49,1.4" transform="translate(121.994 45.235)" fill="#007ac2"/>
    <path id="Path_31" data-name="Path 31" d="M356.594,69.409c-1.211,5.441-3.355,9.522-10.375,10.039-.549.036-1.224.063-2,.063-5.8,0-17.385-1.424-26.816-9.159l.045-.086-.485-.277a35.327,35.327,0,0,1-3.768-3.7l9.037-7.468c8.511,8.8,17.638,10.846,24.172,10.846a29.468,29.468,0,0,0,6.924-.8,14.094,14.094,0,0,0,2.027-.639.83.83,0,0,1,.091-.063,8.33,8.33,0,0,0,.78-.363h.1a.258.258,0,0,1,.268.172,1.317,1.317,0,0,1,.1.571,4.7,4.7,0,0,1-.1.862M251.085,31.166a2.631,2.631,0,0,1,.073-.621v-.036a8.855,8.855,0,0,1,.558-1.954c1.41-3.573,6.067-11.145,22.218-11.154.177,0,.512.063.685.063,10.687.1,18.672,5.21,24.077,10.021a45.766,45.766,0,0,1,6.085,6.6,32.93,32.93,0,0,1,1.873,2.721L295.9,46.166C290.384,34.408,279.633,30,267.952,30.005c-7.4,0-13.762,2.58-15.48,2.562H252.4c-1.17-.073-1.292-.771-1.324-1.4" transform="translate(135.768 36.49)" fill="#00205c"/>
    <path id="Path_32" data-name="Path 32" d="M280.219,93.728a4.262,4.262,0,0,1-2.181-.626,13.023,13.023,0,0,1-4.815-4.874,5.022,5.022,0,0,1-.8-2.331,2.939,2.939,0,0,1,1.147-2.222c.5-.453,5.663-4.2,12.215-9.667a48.3,48.3,0,0,0,7.708,9.495l-9.926,8.783a5.115,5.115,0,0,1-.948.725c-.109.068-.231.132-.349.195a4.449,4.449,0,0,1-2.022.512m51.732-60.461a5.29,5.29,0,0,1,.952-.725,4.881,4.881,0,0,1,2.421-1.043,5.016,5.016,0,0,1,2.149.952,13.151,13.151,0,0,1,4.82,4.874,5.14,5.14,0,0,1,.793,2.331,2.933,2.933,0,0,1-1.138,2.222c-.562.5-7.872,6.634-15.027,12.624-6.461,5.414-12.8,10.71-13.975,11.7-4.344-4.439-6-8.1-6.57-10.633Z" transform="translate(124.104 28.789)" fill="#007ac2"/>
    <path id="Path_33" data-name="Path 33" d="M303.308,114.316a2.952,2.952,0,0,1-1.891.544,4.105,4.105,0,0,1-2.118-.635c-2.743-1.619-4.834-3.627-5.387-4.688a5.223,5.223,0,0,1-.8-2.34,2.72,2.72,0,0,1,.766-1.814,6.246,6.246,0,0,0,1.36-.966l9.912-8.806a61.33,61.33,0,0,0,10.52,7.9l-11.417,10.08a4.751,4.751,0,0,1-.943.73m31.423-28.054a63.383,63.383,0,0,1-10.08-7.967c2.653-2.217,27.877-23.315,28.97-24.3a1.037,1.037,0,0,0,.122-.118l.023.041a5.732,5.732,0,0,1,2.331-.943,3.753,3.753,0,0,1,1.9.907,17.233,17.233,0,0,1,4.729,5.31,3.435,3.435,0,0,1,.363,1.587,4.421,4.421,0,0,1-1.623,3.319Z" transform="translate(112.796 17.043)" fill="#006330"/>
    <path id="Path_34" data-name="Path 34" d="M294.844,81.482a.5.5,0,0,0,.077-.068l-.331-.39A45.548,45.548,0,0,1,288.269,57.6a46.2,46.2,0,0,1,1.474-11.826,35.063,35.063,0,0,1,11,1.918,39.364,39.364,0,0,0-1.079,9.468c0,11.032,4.834,29.283,33.291,39.807-2.417,2.571-5.133,5.364-7.767,7.989-15.829-6.3-25.075-14.845-30.348-23.474" transform="translate(115.442 20.984)" fill="#ffed5e"/>
    <path id="Path_35" data-name="Path 35" d="M350.057,105.671a4.086,4.086,0,0,1-1.691-.453,67.545,67.545,0,0,1-5.94-3.392,2.918,2.918,0,0,1-.621-.453,1.845,1.845,0,0,1-.594-1.3c0-.716.476-1.768,2.267-3.111,5.038-3.809,22.862-21.806,26.208-26.866a42.3,42.3,0,0,0,13.082,5.527c-1.265,1.36-6.04,6.548-11.581,12.243-6.471,6.62-14,13.92-18.106,16.55a5.9,5.9,0,0,1-3.015,1.274M373.939,11.77a24.147,24.147,0,0,1,19.348,8.982A23.4,23.4,0,0,1,398.8,36.419a42.5,42.5,0,0,1-5.074,18.949,34.3,34.3,0,0,1-9.028-2.888,36.6,36.6,0,0,1-5.477-3.174l8.874-7.327a4.957,4.957,0,0,0,1.814-3.7,4.01,4.01,0,0,0-.426-1.814,17.818,17.818,0,0,0-4.879-5.487,3.628,3.628,0,0,0-2.222-.789,4.716,4.716,0,0,0-1.66.345,3.089,3.089,0,0,0,.512-1.664,5.547,5.547,0,0,0-.861-2.571,13.5,13.5,0,0,0-5.01-5.069,4.7,4.7,0,0,0-2.439-.7,5.614,5.614,0,0,0-3.7,1.587l-3.859,2.8c-.639-.939-2.208-3.278-6.947-6.96,2.861-2.013,9.118-6.189,15.476-6.185" transform="translate(86.506 39.567)" fill="#ed2124"/>
    <path id="Path_36" data-name="Path 36" d="M307.9,103c-4.036,0-7.391-2.793-8.121-3.423a3.888,3.888,0,0,1-1.36.258,4.91,4.91,0,0,1-2.031-.517c-2.145-.975-6.031-3.446-6.044-3.451a2.952,2.952,0,0,1-1.6-2.458,2.763,2.763,0,0,1,.181-.957L278.042,85.88a4.672,4.672,0,0,1-1.773.354,5.575,5.575,0,0,1-2.834-.834c-2.838-1.7-4.929-3.374-5.641-4.688a5.9,5.9,0,0,1-.907-2.721,3.269,3.269,0,0,1,.159-1,5.484,5.484,0,0,1-.907.091,5.086,5.086,0,0,1-2.6-.739,13.823,13.823,0,0,1-5.133-5.205,5.9,5.9,0,0,1-.907-2.721,3.532,3.532,0,0,1,.907-2.313c-9.209-13.458-11.6-24.086-11.6-31.468a25.867,25.867,0,0,1,2.267-11.254,1.852,1.852,0,0,1-.907-.676,2.4,2.4,0,0,1-.39-1.383,3.816,3.816,0,0,1,.091-.789,13.184,13.184,0,0,1,3.587-6.8,19.292,19.292,0,0,1,7.686-4.811c1.7-4.153,6.026-6.348,9.885-7.518A34.173,34.173,0,0,1,276.623.027c.594,0,1.183-.027,1.755-.027,14.165,0,22.477,5.047,28.743,10.787a34.989,34.989,0,0,1,8.8-4.475c6.561-3.555,12.4-4.888,17.444-4.888,14.773,0,22.585,11.358,22.613,11.39a27.652,27.652,0,0,1,5.183,16.777,41.846,41.846,0,0,1-3.219,15.634,2.816,2.816,0,0,1,.7-.127,1.32,1.32,0,0,1,1.016.453,1.877,1.877,0,0,1,.363,1.238,5.763,5.763,0,0,1-.15,1.233c-.6,2.721-1.115,5.137-2.34,7.119a8.37,8.37,0,0,1-2.539,2.625.31.31,0,0,1,.032.068,2.157,2.157,0,0,1,.186.93,4.85,4.85,0,0,1-.127,1.047,15.793,15.793,0,0,1-3.2,7.255,10.076,10.076,0,0,1-5.577,3.124c-7.028,8.556-18,21.216-34.071,31.559a7.893,7.893,0,0,1-4.326,1.279ZM301,99.125a15.3,15.3,0,0,0,1.669,1.129,10.694,10.694,0,0,0,5.246,1.623,6.71,6.71,0,0,0,3.723-1.1c15.317-9.858,25.977-21.851,33-30.344-.218.027-.453.045-.662.059-.567.041-1.261.068-2.054.068A46.97,46.97,0,0,1,331.856,69.4c-2.485,2.721-22.023,23.919-29.954,29.02-.354.227-.68.431-.993.608l.1.086m-8.983-8.579c-1.75,1.319-2.145,2.294-2.136,2.866a1.755,1.755,0,0,0,.875,1.387,1.143,1.143,0,0,0,.15.091h.05s3.909,2.471,5.895,3.378a3.765,3.765,0,0,0,1.564.413,5.611,5.611,0,0,0,2.852-1.224c4.058-2.6,11.6-9.907,18.069-16.532,5.119-5.237,9.586-10.048,11.241-11.848a42.422,42.422,0,0,1-12.433-5.282c-3.8,5.441-21.121,22.916-26.14,26.725m-2.544.907a8.623,8.623,0,0,1,1.868-1.814c.907-.667,2.195-1.814,3.773-3.256l-10.13-6.239-5.532,4.879c-.036.036-.132.127-.281.249Zm6.5-5.867c1.682-1.569,3.6-3.423,5.591-5.4A82.131,82.131,0,0,1,290.816,74.9l-4.961,4.453ZM268.049,77.99a4.953,4.953,0,0,0,.766,2.19c.426.875,2.476,2.639,5.219,4.244a4.473,4.473,0,0,0,2.267.68,3.581,3.581,0,0,0,2.222-.789,1.427,1.427,0,0,0,.141-.127L289.8,74.363a60.734,60.734,0,0,1-10.012-7.541l-9.767,8.615a6.115,6.115,0,0,1-1.36.975,2.367,2.367,0,0,0-.635,1.582m-1.46-54.126a47.7,47.7,0,0,0-.739,8.416c.032,13.222,5.287,34.488,36.6,47.053,2.48-2.476,5.024-5.088,7.314-7.522-28.217-10.588-33.132-28.906-33.1-39.984a34.912,34.912,0,0,1,1.088-8.91,35.485,35.485,0,0,0-10.533-1.9c-.131.481-.381,1.451-.635,2.848M259.7,66.428a2.635,2.635,0,0,0-1.047,2,5.036,5.036,0,0,0,.771,2.2,12.762,12.762,0,0,0,4.707,4.752,3.952,3.952,0,0,0,2.027.585,4.725,4.725,0,0,0,2.888-1.138,2.612,2.612,0,0,0,.218-.195l9.7-8.615a48.7,48.7,0,0,1-7.323-9.041c-6.434,5.351-11.49,9.032-11.952,9.45m18.677-41.2a36.157,36.157,0,0,0-.6,6.611c.036,10.819,4.6,28.616,32.806,39.095a90.078,90.078,0,0,0,6.643-7.708,37.313,37.313,0,0,1-3.043-2.308c-20.364-11.644-22.9-21.193-22.9-25.166a7.5,7.5,0,0,1,.159-1.6,25.256,25.256,0,0,0-12.637-10.81c-.113.422-.268,1.061-.426,1.9m63.544,44.214c.771,0,1.433-.027,1.972-.063,3.473-.254,5.65-1.383,7.16-3.079a14.6,14.6,0,0,0,2.947-6.738,4.184,4.184,0,0,0,.1-.8,1.141,1.141,0,0,0-.063-.453c-.236.118-.481.236-.744.345l-.054.036a14.385,14.385,0,0,1-2.136.685,30.294,30.294,0,0,1-7.006.812c-6.552,0-15.7-2.05-24.227-10.76l-8.57,7.092a33.9,33.9,0,0,0,3.519,3.437l.453.258-.045.077c9.372,7.708,20.935,9.141,26.7,9.137M250.07,23.987a16,16,0,0,0-.862,2.149,27.141,27.141,0,0,0-1.265,8.506c0,7.105,2.267,17.448,11.309,30.688.78-.612,2.721-2.059,5.373-4.14a49.976,49.976,0,0,1-8.638-28.058,44.48,44.48,0,0,1,1.36-11.213c-.517.109-1.016.222-1.492.336-2.521.585-4.389,1.183-5.55,1.283-.059.109-.136.258-.227.453m7.817.608a46.453,46.453,0,0,0-.775,8.538,48.82,48.82,0,0,0,8.4,27.36c1.641-1.3,3.514-2.807,5.532-4.484a46.272,46.272,0,0,1-6.348-23.724,45.68,45.68,0,0,1,1.36-11.3h-.494a37.994,37.994,0,0,0-6.96.694c-.132.453-.408,1.437-.689,2.916M344.1,59.064a29,29,0,0,0,6.743-.775,13.6,13.6,0,0,0,1.945-.626,3.069,3.069,0,0,1,.907-.413,7.38,7.38,0,0,0,2.925-2.721c1.084-1.737,1.6-4.026,2.195-6.761a4.712,4.712,0,0,0,.132-1,.869.869,0,0,0-.1-.512c-.027-.023-.027-.036-.154-.045a2.823,2.823,0,0,0-1.165.453,6.519,6.519,0,0,0-.712.453l-.036.027h-.041A21.357,21.357,0,0,1,346.3,49.764c-9.5,0-17.657-5.523-19.044-6.489l-6.507,5.387c8.293,8.416,17.045,10.343,23.356,10.352m-34.7-2.417L336,34.574a4.111,4.111,0,0,0,1.528-3.088,3.206,3.206,0,0,0-.331-1.451,17.06,17.06,0,0,0-4.652-5.214,2.774,2.774,0,0,0-1.759-.567,5.19,5.19,0,0,0-2.195.657l-.073.027c-1.079.97-25.034,21.008-28.761,24.127a63.382,63.382,0,0,0,9.617,7.572m36.878-7.958a20.252,20.252,0,0,0,9.885-2.471,4.245,4.245,0,0,0,.381-.512,41.019,41.019,0,0,0,3.514-16.11,26.49,26.49,0,0,0-4.988-16.12,17.748,17.748,0,0,0-1.36-1.678,29.96,29.96,0,0,0-4.149-3.768,26.753,26.753,0,0,0-16.165-5.473A32.4,32.4,0,0,0,321.3,5.024a24.985,24.985,0,0,1,3.378-.236c5.795,0,12.111,2.176,17.657,8.661a24.17,24.17,0,0,1,5.718,16.219,43.108,43.108,0,0,1-4.888,18.817,24.987,24.987,0,0,0,3.1.2m-17.076-5.441a40.338,40.338,0,0,0,4.058,2.208,34,34,0,0,0,8.742,2.834c1.038-1.859,4.951-9.853,4.938-18.641a23.166,23.166,0,0,0-5.441-15.485c-5.369-6.226-11.29-8.239-16.8-8.266a25.95,25.95,0,0,0-8.3,1.437c-.113.059-.644.249-.644.249a31.917,31.917,0,0,0-7.767,3.972c2.208,2.108,4.167,4.589,6.058,6.611l-.821.766c-7.4-7.863-15.267-17.779-34.819-17.806-.567,0-1.138,0-1.7.027,0,0-.852.041-2.19.231a34.163,34.163,0,0,0-5.06,1.111C266,3.537,262.385,5.378,260.68,8.457a38.916,38.916,0,0,1,10.955-1.4h.531c19.5.218,30.412,15.657,32.6,19.08L317.428,15.1a5.867,5.867,0,0,1,3.886-1.65,4.988,4.988,0,0,1,2.6.739,13.818,13.818,0,0,1,5.133,5.2,5.788,5.788,0,0,1,.907,2.721,3.132,3.132,0,0,1-.213,1.156,4.353,4.353,0,0,1,1.043-.141,3.962,3.962,0,0,1,2.4.839,18.015,18.015,0,0,1,4.988,5.6,4.332,4.332,0,0,1,.453,1.968,5.243,5.243,0,0,1-1.923,3.936l-8.579,7.105c.249.172.608.408,1.056.694m-30.217,4.988c1.6-1.36,7.636-6.384,13.78-11.531,7.155-5.981,14.483-12.129,15.027-12.614a2.657,2.657,0,0,0,1.047-2,4.979,4.979,0,0,0-.771-2.19,12.7,12.7,0,0,0-4.707-4.752,3.905,3.905,0,0,0-2.027-.585,4.684,4.684,0,0,0-2.888,1.138c-.15.127-.218.195-.218.195L292.693,38.152c.585,2.435,2.19,5.895,6.257,10.116Zm-5.332-12.406,10.275-8.955-.209-.322c-.336-.517-.839-1.261-1.514-2.154a45.963,45.963,0,0,0-6.049-6.561,36.32,36.32,0,0,0-23.982-9.667h-.517c-18.754.041-21.905,9.7-22.495,12.02a3.9,3.9,0,0,0-.091.494v.082a.551.551,0,0,1-.032.145,2.94,2.94,0,0,0-.032.4,1.363,1.363,0,0,0,.186.739c.132.172.308.326.839.354h.059a52.9,52.9,0,0,0,5.555-1.265,43.586,43.586,0,0,1,9.948-1.3h.063c11.617,0,22.413,4.389,28.018,15.988" transform="translate(138.102 46)" fill="#241f21"/>
  </g>
</svg>
